<?xml version="1.0" standalone="no"?><!DOCTYPE svg PUBLIC "-//W3C//DTD SVG 1.1//EN" "http://www.w3.org/Graphics/SVG/1.1/DTD/svg11.dtd"><svg t="1540136939079" class="icon" style="" viewBox="0 0 1024 1024" version="1.1" xmlns="http://www.w3.org/2000/svg" p-id="8395" xmlns:xlink="http://www.w3.org/1999/xlink" width="16" height="16"><defs><style type="text/css"></style></defs><path d="M512 0C229.234472 0 0 229.226146 0 512S229.234472 1024 512 1024 1024 794.765528 1024 512 794.765528 0 512 0z m25.624976 527.58478c37.646569 52.648585 74.96013 105.68013 112.265365 158.578472a18998.796488 18998.796488 0 0 1 107.203643 153.924683h-42.658342c-32.99278-47.437008-79.638894-114.438244-99.228097-142.602407-32.235187-46.363057-64.270569-93.117398-96.380878-139.563707-6.33548-9.174374-6.993171-8.891317-13.078895-0.049951a32806.72052 32806.72052 0 0 1-89.579187 129.406959c-30.49522 43.873821-61.106992 87.814244-91.627187 131.66309-3.421659 4.91187-10.606309 15.210146-13.944715 21.146016h-43.116228c8.167024-11.855089 19.456-28.713626 26.865431-39.319935 31.793951-45.538862 63.50465-91.410732 95.465106-136.833041 21.170992-30.09561 42.683317-59.949789 64.09574-89.870569 11.272325-15.751285 23.010862-31.177886 33.733723-47.287154 2.106276-3.155252 2.405984-10.040195 0.357984-13.012293-10.364878-15.035317-22.120065-29.104911-32.726374-43.982049-10.589659-14.860488-20.355122-30.30374-30.586797-45.422309-3.288455-4.861919-6.94322-9.474081-10.331577-14.277723-30.678374-43.607415-61.315122-87.239805-92.001821-130.838895-13.037268-18.531902-47.437008-65.669203-68.141789-95.315252h42.849821c38.562341 55.337626 96.48078 136.100423 129.448586 183.179448l85.941073 122.721821c6.793366-9.607285 12.654309-17.82426 18.44865-26.091187 58.875837-84.026276 137.082797-194.826407 196.216716-279.810082h42.999675c-12.337951 17.790959-31.460943 44.231805-37.796423 53.2147-24.234667 34.366439-48.494309 68.724553-72.695675 103.115967-26.590699 37.796423-53.081496 75.676098-79.697171 113.447545a4339.445593 4339.445593 0 0 1-42.258731 59.208845c-3.829593 5.253203-4.087675 9.00787-0.041626 14.669008z" fill="#2c2c2c" p-id="8396" data-spm-anchor-id="a313x.7781069.0.i8"></path></svg>