<?xml version="1.0" standalone="no"?><!DOCTYPE svg PUBLIC "-//W3C//DTD SVG 1.1//EN" "http://www.w3.org/Graphics/SVG/1.1/DTD/svg11.dtd"><svg t="1540137343310" class="icon" style="" viewBox="0 0 1024 1024" version="1.1" xmlns="http://www.w3.org/2000/svg" p-id="14830" xmlns:xlink="http://www.w3.org/1999/xlink" width="16" height="16"><defs><style type="text/css"></style></defs><path d="M938.666667 512a426.666667 426.666667 0 0 1-426.666667 426.666667A426.666667 426.666667 0 0 1 85.333333 512 426.666667 426.666667 0 0 1 512 85.333333a426.666667 426.666667 0 0 1 426.666667 426.666667m-326.826667-181.76c24.746667 14.08 55.893333 5.546667 70.826667-18.773333 13.226667-24.32 5.12-55.466667-19.626667-69.973334-24.32-14.08-55.893333-6.826667-69.973333 18.773334-14.08 24.32-5.546667 55.893333 18.773333 69.973333m-104.96 331.093333c-22.613333 0-43.946667-4.693333-62.72-13.653333l-35.84 64c29.866667 13.653333 63.146667 23.04 98.56 23.04 20.906667 0 40.533333-2.986667 59.733333-8.106667 3.413333-20.906667 15.36-39.68 34.986667-50.773333 19.626667-11.52 41.813333-12.373333 61.44-5.12 37.973333-37.12 62.293333-87.893333 66.133333-144.64l-72.96-0.853333a149.589333 149.589333 0 0 1-149.333333 136.106666m0-298.666666c78.506667 0 142.506667 59.306667 149.333333 136.106666l72.96-1.28a222.250667 222.250667 0 0 0-66.133333-144.213333c-19.626667 7.253333-42.24 5.973333-61.44-5.12-19.626667-11.093333-31.573333-30.293333-34.986667-50.773333-19.2-5.12-38.826667-8.106667-59.733333-8.106667-35.413333 0-68.693333 8.106667-98.56 23.04l35.84 64c18.773333-8.96 40.106667-13.653333 62.72-13.653333M357.12 512c0-50.773333 25.173333-95.573333 63.573333-122.453333L384 326.4a222.592 222.592 0 0 0-92.586667 129.706667c16.213333 13.226667 26.453333 33.28 26.453334 55.893333s-10.24 42.666667-26.453334 55.893333A221.653333 221.653333 0 0 0 384 697.173333l36.693333-62.72c-38.4-26.88-63.573333-71.68-63.573333-122.453333m254.72 181.76c-24.32 14.08-32.853333 45.226667-18.773333 69.973333 14.08 24.32 45.653333 32.853333 69.973333 18.773334 24.746667-14.506667 32.853333-45.653333 19.626667-69.973334-14.933333-24.746667-46.08-32.853333-70.826667-18.773333M245.76 460.8c-28.16 0-51.2 23.04-51.2 51.2 0 28.16 23.04 51.2 51.2 51.2 28.586667 0 51.2-23.04 51.2-51.2 0-28.16-22.613333-51.2-51.2-51.2z" fill="#dd4814" p-id="14831"></path></svg>