<?xml version="1.0" standalone="no"?><!DOCTYPE svg PUBLIC "-//W3C//DTD SVG 1.1//EN" "http://www.w3.org/Graphics/SVG/1.1/DTD/svg11.dtd"><svg t="1540210610365" class="icon" style="" viewBox="0 0 1024 1024" version="1.1" xmlns="http://www.w3.org/2000/svg" p-id="7909" xmlns:xlink="http://www.w3.org/1999/xlink" width="16" height="16"><defs><style type="text/css"></style></defs><path d="M512 182.044444c-182.226489 0-329.955556 147.729067-329.955556 329.955556s147.729067 329.955556 329.955556 329.955556 329.955556-147.729067 329.955556-329.955556S694.226489 182.044444 512 182.044444zM512 787.751822c-152.291556 0-275.751822-123.460267-275.751822-275.751822S359.708444 236.248178 512 236.248178 787.751822 359.708444 787.751822 512 664.291556 787.751822 512 787.751822zM617.005511 410.612622c3.9936 11.912533-2.446222 24.814933-14.370133 28.785778-11.935289 3.970844-24.826311-2.446222-28.785778-14.370133-5.415822-16.156444-24.849067-35.032178-61.860978-35.032178-30.640356 0-48.810667 20.605156-50.926933 40.948622-2.594133 25.031111 18.716444 45.374578 55.591822 53.088711 73.773511 15.439644 95.414044 64.773689 91.522844 102.331733-4.061867 39.298844-34.133333 70.360178-73.432178 79.166578L534.744178 694.044444c0 12.561067-10.194489 22.755556-22.755556 22.755556s-22.755556-10.194489-22.755556-22.755556l0-27.716267c-46.876444-7.543467-73.398044-37.842489-82.249956-64.318578-3.9936-11.912533 2.446222-24.814933 14.370133-28.785778 11.901156-4.016356 24.814933 2.446222 28.785778 14.370133 5.415822 16.156444 24.849067 35.032178 61.860978 35.032178 30.640356 0 48.810667-20.605156 50.926933-40.948622 2.594133-25.031111-18.716444-45.374578-55.591822-53.088711-73.773511-15.439644-95.414044-64.773689-91.522844-102.331733 4.061867-39.298844 34.133333-70.360178 73.432178-79.166578L489.244444 318.577778c0-12.561067 10.194489-22.755556 22.755556-22.755556s22.755556 10.194489 22.755556 22.755556l0 27.716267C581.632 353.837511 608.1536 384.136533 617.005511 410.612622z" p-id="7910" fill="#2c2c2c"></path></svg>